#Comment line ignore any data following # character 
#Hierarchical Translation and Rotation (.htr) file 
[Header]	
#Header keywords are followed by a single value 
FileType HTR		#Single word string
DataType HTRS		#Translation followed by rotation and scale data
FileVersion 1		#integer
NumSegments 64		#integer
NumFrames 3		#integer
DataFrameRate 30		#integer, data frame rate in this file
EulerRotationOrder ZYX
CalibrationUnits mm
RotationUnits Degrees
GlobalAxisofGravity Y
BoneLengthAxis Y
ScaleFactor 1.00
[SegmentNames&Hierarchy]
#CHILD	PARENT
Pinger_Root GLOBAL
Pelvis Pinger_Root
L_Hip Pelvis
R_Hip Pelvis
Rear_Leg01 Pelvis
Spine1 Pelvis
L_Leg01 L_Hip
L_Leg02 L_Leg01
L_Leg03 L_Leg02
L_Foot L_Leg03
L_Toe1_01 L_Foot
L_Toe2_01 L_Foot
L_Toe3_01 L_Foot
planeAlignerLeft L_Foot
L_Toe1_02 L_Toe1_01
L_Toe1_03 L_Toe1_02
L_Toe2_02 L_Toe2_01
L_Toe2_03 L_Toe2_02
L_Toe3_02 L_Toe3_01
L_Toe3_03 L_Toe3_02
planeLockWeightLeft planeAlignerLeft
R_Leg01 R_Hip
R_Leg02 R_Leg01
R_Leg03 R_Leg02
R_Foot R_Leg03
planeAlignerRight R_Foot
R_Toe1_01 R_Foot
R_Toe2_01 R_Foot
R_Toe3_01 R_Foot
planeLockWeightRight planeAlignerRight
R_Toe1_02 R_Toe1_01
R_Toe1_03 R_Toe1_02
R_Toe2_02 R_Toe2_01
R_Toe2_03 R_Toe2_02
R_Toe3_02 R_Toe3_01
R_Toe3_03 R_Toe3_02
Rear_Leg02 Rear_Leg01
Rear_Leg03 Rear_Leg02
Rear_Leg04 Rear_Leg03
Rear_Foot Rear_Leg04
planeAlignerCenter Rear_Foot
Rear_Toe1_01 Rear_Foot
Rear_Toe2_01 Rear_Foot
Rear_Toe3_01 Rear_Foot
planeLockWeightCenter planeAlignerCenter
Rear_Toe1_02 Rear_Toe1_01
Rear_Toe1_03 Rear_Toe1_02
Rear_Toe2_02 Rear_Toe2_01
Rear_Toe2_03 Rear_Toe2_02
Rear_Toe3_02 Rear_Toe3_01
Rear_Toe3_03 Rear_Toe3_02
Back_Bone Spine1
Head Spine1
Motor_Bone Back_Bone
Ping_Mechanism Back_Bone
BN_LookIK Head
bottomMouth Head
L_Mouth01 Head
L_mouthFront Head
mouthGun Head
R_Mouth01 Head
R_mouthFront Head
TopMouth Head
weapon_bone Head
[BasePosition]
#SegmentName Tx, Ty, Tz, Rx, Ry, Rz, BoneLength
Pinger_Root 0.000000 0.000000 0.000000 -90.000000 0.000000 0.000000 10.000000 
Pelvis 0.000000 0.000000 0.000000 0.000000 0.000000 0.000000 10.000000 
L_Hip 0.000000 0.000000 0.000000 0.000000 0.000000 0.000000 10.000000 
R_Hip 0.000000 0.000000 0.000000 0.000000 0.000000 0.000000 10.000000 
Rear_Leg01 0.000000 0.000000 0.000000 0.000000 0.000000 0.000000 10.000000 
Spine1 0.000000 0.000000 0.000000 0.000000 0.000000 0.000000 10.000000 
L_Leg01 0.000000 0.000000 0.000000 0.000000 0.000000 0.000000 10.000000 
L_Leg02 0.000000 0.000000 0.000000 0.000000 0.000000 0.000000 10.000000 
L_Leg03 0.000000 0.000000 0.000000 0.000000 0.000000 0.000000 10.000000 
L_Foot 0.000000 0.000000 0.000000 0.000000 0.000000 0.000000 10.000000 
L_Toe1_01 0.000000 0.000000 0.000000 0.000000 0.000000 0.000000 10.000000 
L_Toe2_01 0.000000 0.000000 0.000000 0.000000 0.000000 0.000000 10.000000 
L_Toe3_01 0.000000 0.000000 0.000000 0.000000 0.000000 0.000000 10.000000 
planeAlignerLeft 0.000000 0.000000 0.000000 0.000000 0.000000 0.000000 10.000000 
L_Toe1_02 0.000000 0.000000 0.000000 0.000000 0.000000 0.000000 10.000000 
L_Toe1_03 0.000000 0.000000 0.000000 0.000000 0.000000 0.000000 10.000000 
L_Toe2_02 0.000000 0.000000 0.000000 0.000000 0.000000 0.000000 10.000000 
L_Toe2_03 0.000000 0.000000 0.000000 0.000000 0.000000 0.000000 10.000000 
L_Toe3_02 0.000000 0.000000 0.000000 0.000000 0.000000 0.000000 10.000000 
L_Toe3_03 0.000000 0.000000 0.000000 0.000000 0.000000 0.000000 10.000000 
planeLockWeightLeft 0.000000 0.000000 0.000000 0.000000 0.000000 0.000000 10.000000 
R_Leg01 0.000000 0.000000 0.000000 0.000000 0.000000 0.000000 10.000000 
R_Leg02 0.000000 0.000000 0.000000 0.000000 0.000000 0.000000 10.000000 
R_Leg03 0.000000 0.000000 0.000000 0.000000 0.000000 0.000000 10.000000 
R_Foot 0.000000 0.000000 0.000000 0.000000 0.000000 0.000000 10.000000 
planeAlignerRight 0.000000 0.000000 0.000000 0.000000 0.000000 0.000000 10.000000 
R_Toe1_01 0.000000 0.000000 0.000000 0.000000 0.000000 0.000000 10.000000 
R_Toe2_01 0.000000 0.000000 0.000000 0.000000 0.000000 0.000000 10.000000 
R_Toe3_01 0.000000 0.000000 0.000000 0.000000 0.000000 0.000000 10.000000 
planeLockWeightRight 0.000000 0.000000 0.000000 0.000000 0.000000 0.000000 10.000000 
R_Toe1_02 0.000000 0.000000 0.000000 0.000000 0.000000 0.000000 10.000000 
R_Toe1_03 0.000000 0.000000 0.000000 0.000000 0.000000 0.000000 10.000000 
R_Toe2_02 0.000000 0.000000 0.000000 0.000000 0.000000 0.000000 10.000000 
R_Toe2_03 0.000000 0.000000 0.000000 0.000000 0.000000 0.000000 10.000000 
R_Toe3_02 0.000000 0.000000 0.000000 0.000000 0.000000 0.000000 10.000000 
R_Toe3_03 0.000000 0.000000 0.000000 0.000000 0.000000 0.000000 10.000000 
Rear_Leg02 0.000000 0.000000 0.000000 0.000000 0.000000 0.000000 10.000000 
Rear_Leg03 0.000000 0.000000 0.000000 0.000000 0.000000 0.000000 10.000000 
Rear_Leg04 0.000000 0.000000 0.000000 0.000000 0.000000 0.000000 10.000000 
Rear_Foot 0.000000 0.000000 0.000000 0.000000 0.000000 0.000000 10.000000 
planeAlignerCenter 0.000000 0.000000 0.000000 0.000000 0.000000 0.000000 10.000000 
Rear_Toe1_01 0.000000 0.000000 0.000000 0.000000 0.000000 0.000000 10.000000 
Rear_Toe2_01 0.000000 0.000000 0.000000 0.000000 0.000000 0.000000 10.000000 
Rear_Toe3_01 0.000000 0.000000 0.000000 0.000000 0.000000 0.000000 10.000000 
planeLockWeightCenter 0.000000 0.000000 0.000000 0.000000 0.000000 0.000000 10.000000 
Rear_Toe1_02 0.000000 0.000000 0.000000 0.000000 0.000000 0.000000 10.000000 
Rear_Toe1_03 0.000000 0.000000 0.000000 0.000000 0.000000 0.000000 10.000000 
Rear_Toe2_02 0.000000 0.000000 0.000000 0.000000 0.000000 0.000000 10.000000 
Rear_Toe2_03 0.000000 0.000000 0.000000 0.000000 0.000000 0.000000 10.000000 
Rear_Toe3_02 0.000000 0.000000 0.000000 0.000000 0.000000 0.000000 10.000000 
Rear_Toe3_03 0.000000 0.000000 0.000000 0.000000 0.000000 0.000000 10.000000 
Back_Bone 0.000000 0.000000 0.000000 0.000000 0.000000 0.000000 10.000000 
Head 0.000000 0.000000 0.000000 0.000000 0.000000 0.000000 10.000000 
Motor_Bone 0.000000 0.000000 0.000000 0.000000 0.000000 0.000000 10.000000 
Ping_Mechanism 0.000000 0.000000 0.000000 0.000000 0.000000 0.000000 10.000000 
BN_LookIK 0.000000 0.000000 0.000000 0.000000 0.000000 0.000000 10.000000 
bottomMouth 0.000000 0.000000 0.000000 0.000000 0.000000 0.000000 10.000000 
L_Mouth01 0.000000 0.000000 0.000000 0.000000 0.000000 0.000000 10.000000 
L_mouthFront 0.000000 0.000000 0.000000 0.000000 0.000000 0.000000 10.000000 
mouthGun 0.000000 0.000000 0.000000 0.000000 0.000000 0.000000 10.000000 
R_Mouth01 0.000000 0.000000 0.000000 0.000000 0.000000 0.000000 10.000000 
R_mouthFront 0.000000 0.000000 0.000000 0.000000 0.000000 0.000000 10.000000 
TopMouth 0.000000 0.000000 0.000000 0.000000 0.000000 0.000000 10.000000 
weapon_bone 0.000000 0.000000 0.000000 0.000000 0.000000 0.000000 10.000000 
#Beginning of Data. Separated by tabs
#Fr	Tx	Ty	Tz	Rx	Ry	Rz	SF
[Pinger_Root]
49 0.000000 0.000000 0.000000 -0.000075 0.000001 1.260206 0.000000
50 0.000000 0.000000 0.000000 -0.000075 0.000001 2.186992 0.000000
51 0.000000 0.000000 0.000000 -0.000075 0.000002 3.333628 0.000000
[Pelvis]
49 2642.033936 127.205521 3185.990723 -102.395370 -74.179451 93.897362 4140.900879
50 2732.586426 81.942085 3181.564453 -106.546104 -74.056274 96.973480 4194.770020
51 2828.152588 22.396473 3176.133545 -113.730034 -73.668617 102.772980 4252.854492
[L_Hip]
49 5.766392 125.831482 872.656799 160.158691 -45.484894 122.312202 881.701050
50 5.766392 125.831482 872.656799 160.158691 -45.484894 122.312202 881.701050
51 5.766392 125.831482 872.656799 160.158691 -45.484894 122.312202 881.701050
[R_Hip]
49 5.765438 125.836372 -872.654907 38.087826 49.812679 125.703735 881.699829
50 5.765438 125.836372 -872.654907 38.087841 49.812687 125.703735 881.699829
51 5.765438 125.836372 -872.654907 38.087826 49.812672 125.703735 881.699829
[Rear_Leg01]
49 -192.298416 -925.602966 -0.001907 177.390839 -18.922270 -162.806671 945.367432
50 -192.298416 -925.602966 -0.001907 176.146255 -21.331636 -162.279419 945.367432
51 -192.298416 -925.602966 -0.001907 174.300873 -24.556406 -161.306656 945.367432
[Spine1]
49 290.604584 5.007505 0.000477 -8.883587 33.604538 6.727332 290.647736
50 290.604584 5.007505 0.000477 -5.879225 31.152603 9.151919 290.647736
51 290.604584 5.007505 0.000477 -2.825445 27.734547 11.367291 290.647736
[L_Leg01]
49 761.932007 -0.002384 -0.069261 29.313404 -9.563278 22.805267 761.932068
50 761.932007 -0.002384 -0.069261 31.766502 -7.606248 21.718569 761.932068
51 761.932007 -0.002384 -0.069261 35.020618 -5.282112 21.609241 761.932068
[L_Leg02]
49 1441.140503 -0.000954 -0.000715 0.894515 -0.121636 -112.228569 1441.140503
50 1441.140503 -0.000954 -0.000715 0.528530 -0.088445 -108.347496 1441.140503
51 1441.140503 -0.000954 -0.000715 0.166047 -0.030641 -104.471207 1441.140503
[L_Leg03]
49 1686.963989 -0.000715 -0.000954 -0.019083 0.007967 115.850708 1686.963989
50 1686.963989 -0.000715 -0.000954 -0.017418 0.007487 115.265137 1686.963989
51 1686.963989 -0.000715 -0.000954 -0.015748 0.007025 114.679573 1686.963989
[L_Foot]
49 3041.570068 -30.715107 11.297464 -23.606373 15.517614 16.590467 3041.746094
50 3041.570068 -30.715107 11.297464 -25.427937 15.249214 14.961020 3041.746094
51 3041.570068 -30.715107 11.297464 -27.551443 14.902658 13.038758 3041.746094
[L_Toe1_01]
49 -188.216690 -224.732346 -21.137953 93.598923 -6.836024 -170.609207 293.899567
50 -188.216690 -224.732346 -21.137953 93.564362 -6.489008 -170.204163 293.899567
51 -188.216690 -224.732346 -21.137953 93.480141 -5.645373 -169.178772 293.899567
[L_Toe2_01]
49 200.746536 -219.926590 148.838394 -89.577621 -25.982790 -53.967812 332.896027
50 200.746536 -219.926590 148.838394 -89.601303 -25.512136 -54.260086 332.896027
51 200.746536 -219.926590 148.838394 -89.630836 -24.367075 -54.997383 332.896027
[L_Toe3_01]
49 188.832520 -219.859131 -191.078659 -100.000114 13.537884 -69.167435 347.140900
50 188.832520 -219.859131 -191.078659 -100.228416 13.793407 -69.824486 347.140900
51 188.832520 -219.859131 -191.078659 -100.794891 14.389515 -71.383003 347.140900
[planeAlignerLeft]
49 0.812531 -811.448792 -0.314951 0.000000 -90.000000 -90.001900 811.449280
50 0.812531 -811.448792 -0.314951 0.000000 -90.000000 -90.001900 811.449280
51 0.812531 -811.448792 -0.314951 0.000000 -90.000000 -90.001900 811.449280
[L_Toe1_02]
49 413.761139 0.000477 0.000000 0.001384 -25.929823 0.001384 413.761139
50 413.761139 0.000477 0.000000 0.001384 -25.927074 0.001384 413.761139
51 413.761139 0.000477 0.000000 0.001384 -25.924322 0.001384 413.761139
[L_Toe1_03]
49 464.317322 0.000358 -0.000089 0.003574 51.660595 0.003574 464.317322
50 464.317322 0.000358 -0.000089 0.003546 51.342121 0.003546 464.317322
51 464.317322 0.000358 -0.000089 0.003467 50.432938 0.003467 464.317322
[L_Toe2_02]
49 342.235809 -0.000477 0.000238 0.001189 -71.807610 0.001189 342.235809
50 342.235809 -0.000477 0.000238 0.001189 -71.803894 0.001189 342.235809
51 342.235809 -0.000477 0.000238 0.001189 -71.800140 0.001189 342.235809
[L_Toe2_03]
49 420.210846 -0.000715 0.000000 0.022630 84.054398 0.022630 420.210846
50 420.210846 -0.000715 0.000000 0.022622 84.052353 0.022622 420.210846
51 420.210846 -0.000715 0.000000 0.022614 84.050308 0.022614 420.210846
[L_Toe3_02]
49 329.270111 0.000954 0.000000 0.001178 -79.937218 0.001178 329.270111
50 329.270111 0.000954 0.000000 0.001178 -79.621323 0.001178 329.270111
51 329.270111 0.000954 0.000000 0.001179 -78.754898 0.001179 329.270111
[L_Toe3_03]
49 439.137451 -0.001907 0.000954 -179.994659 80.724602 -179.991135 439.137451
50 439.137451 -0.001907 0.000954 -179.993622 81.884964 -179.990128 439.137451
51 439.137451 -0.001907 0.000954 -179.989105 84.791542 -179.985611 439.137451
[planeLockWeightLeft]
49 -0.000954 0.000238 -0.000305 -0.011826 -0.004376 0.005620 0.001029
50 -0.000954 0.000238 -0.000305 -0.011826 -0.004376 0.005620 0.001029
51 -0.000954 0.000238 -0.000305 -0.011826 -0.004376 0.005620 0.001029
[R_Leg01]
49 761.455627 -0.001907 -0.000358 97.106888 -46.226318 29.260033 761.455688
50 761.455627 -0.001907 -0.000358 98.059624 -47.772434 31.499075 761.455688
51 761.455627 -0.001907 -0.000358 97.992325 -49.244175 35.845268 761.455688
[R_Leg02]
49 1441.140625 0.000000 -0.000238 -3.626554 -1.629080 163.013290 1441.140625
50 1441.140625 0.000000 -0.000238 -3.631735 -1.631109 162.532883 1441.140625
51 1441.140625 0.000000 -0.000238 -3.626625 -1.628922 163.018280 1441.140625
[R_Leg03]
49 1686.963989 0.000954 0.001431 0.115279 -0.072087 142.228287 1686.963989
50 1686.963989 0.000954 0.001431 0.115306 -0.072042 142.184372 1686.963989
51 1686.963989 0.000954 0.001431 0.115334 -0.071998 142.140442 1686.963989
[R_Foot]
49 3041.560059 -30.531288 -11.204481 19.101347 -63.521244 75.220963 3041.734131
50 3041.560059 -30.531288 -11.204481 14.561168 -63.884884 78.870766 3041.734131
51 3041.560059 -30.531288 -11.204481 9.237896 -64.934364 82.810966 3041.734131
[planeAlignerRight]
49 -0.635147 -812.270569 -0.364304 0.000000 -89.960434 -90.005180 812.270874
50 -0.635147 -812.270569 -0.364304 0.000000 -89.960434 -90.005180 812.270874
51 -0.635147 -812.270569 -0.364304 0.000000 -89.960434 -90.005180 812.270874
[R_Toe1_01]
49 -188.383347 -224.864899 21.052242 76.281891 12.084992 -179.859756 294.101532
50 -188.383347 -224.864899 21.052242 76.355759 12.198768 179.987091 294.101532
51 -188.383347 -224.864899 21.052242 76.429337 12.312733 179.834030 294.101532
[R_Toe2_01]
49 200.637817 -220.002121 -148.787384 -94.811256 48.476723 -54.567795 332.857574
50 200.637817 -220.002121 -148.787384 -94.753189 48.811371 -54.252148 332.857574
51 200.637817 -220.002121 -148.787384 -94.691887 49.145786 -53.933846 332.857574
[R_Toe3_01]
49 188.606735 -220.092957 191.126343 -77.331757 1.513329 -56.149357 347.192566
50 188.606735 -220.092957 191.126343 -77.330971 1.509329 -55.390110 347.192566
51 188.606735 -220.092957 191.126343 -77.330719 1.513659 -54.853394 347.192566
[planeLockWeightRight]
49 -0.000477 0.000000 0.000000 -0.011823 -0.004379 -0.000027 0.000477
50 -0.000477 0.000000 0.000000 -0.011823 -0.004379 -0.000027 0.000477
51 -0.000477 0.000000 0.000000 -0.011823 -0.004379 -0.000027 0.000477
[R_Toe1_02]
49 413.762085 0.000477 -0.000119 0.001386 -25.725391 0.001386 413.762085
50 413.762085 0.000477 -0.000119 0.001386 -25.754145 0.001386 413.762085
51 413.762085 0.000477 -0.000119 0.001386 -25.782900 0.001386 413.762085
[R_Toe1_03]
49 464.317810 0.000000 0.001088 0.004455 59.448238 0.004455 464.317810
50 464.317810 0.000000 0.001088 0.004354 58.724930 0.004354 464.317810
51 464.317810 0.000000 0.001088 0.004258 58.001667 0.004258 464.317810
[R_Toe2_02]
49 342.234741 -0.000954 0.000238 0.001206 -63.303040 0.001206 342.234741
50 342.234741 -0.000954 0.000238 0.001205 -63.725712 0.001205 342.234741
51 342.234741 -0.000954 0.000238 0.001204 -64.148369 0.001204 342.234741
[R_Toe2_03]
49 420.210846 0.000715 -0.000268 -0.004598 66.409485 -0.001026 420.210846
50 420.210846 0.000715 -0.000268 -0.004693 67.213364 -0.001126 420.210846
51 420.210846 0.000715 -0.000268 -0.004766 67.796280 -0.001203 420.210846
[R_Toe3_02]
49 329.270355 -0.000477 -0.000954 0.001175 -83.862213 0.001175 329.270355
50 329.270355 -0.000477 -0.000954 0.001175 -83.979004 0.001175 329.270355
51 329.270355 -0.000477 -0.000954 0.001175 -84.095749 0.001175 329.270355
[R_Toe3_03]
49 439.137939 0.000238 0.001431 -179.995010 58.727825 -179.987747 439.137939
50 439.137939 0.000238 0.001431 -179.995346 57.465157 -179.988068 439.137939
51 439.137939 0.000238 0.001431 -179.995575 56.530983 -179.988281 439.137939
[Rear_Leg02]
49 1162.777710 -0.029802 0.005960 2.310995 -1.833841 -164.509644 1162.777710
50 1162.777710 -0.029802 0.005960 2.264974 -1.890715 -163.002090 1162.777710
51 1162.777710 -0.029802 0.005960 2.210845 -1.958334 -161.269928 1162.777710
[Rear_Leg03]
49 607.192505 -0.013351 -0.073195 0.010104 -0.005837 76.381279 607.192505
50 607.192505 -0.013351 -0.073195 0.010120 -0.005809 76.069794 607.192505
51 607.192505 -0.013351 -0.073195 0.010135 -0.005782 75.758293 607.192505
[Rear_Leg04]
49 995.874512 -0.020504 -0.011921 -0.042773 -0.018318 87.790924 995.874573
50 995.874512 -0.020504 -0.011921 -0.042597 -0.018725 86.697701 995.874573
51 995.874512 -0.020504 -0.011921 -0.042412 -0.019129 85.604568 995.874573
[Rear_Foot]
49 3096.176270 -0.067472 -0.041425 -172.368561 73.434502 27.920408 3096.176270
50 3096.176270 -0.067472 -0.041425 -172.962479 71.982605 27.216825 3096.176270
51 3096.176270 -0.067472 -0.041425 -173.529022 70.358528 26.535421 3096.176270
[planeAlignerCenter]
49 0.350077 0.966311 -838.790894 0.000009 0.000003 -179.999985 838.791565
50 0.350077 0.966311 -838.790894 0.000009 0.000003 -179.999985 838.791565
51 0.350077 0.966311 -838.790894 0.000009 0.000003 -179.999985 838.791565
[Rear_Toe1_01]
49 0.653352 83.966492 -371.173737 0.293975 41.911301 90.409004 380.553192
50 0.653352 83.966492 -371.173737 0.293982 41.911247 90.409019 380.553192
51 0.653352 83.966492 -371.173737 0.293995 41.911194 90.409058 380.553192
[Rear_Toe2_01]
49 178.200760 -294.826019 -362.060547 -7.197971 34.405209 -66.271591 499.765686
50 178.200760 -294.826019 -362.060547 -7.198008 34.405190 -66.271622 499.765686
51 178.200760 -294.826019 -362.060547 -7.198044 34.405170 -66.271629 499.765686
[Rear_Toe3_01]
49 -153.359680 -308.780914 -362.060852 3.289777 33.515327 -112.541458 499.952881
50 -153.359680 -308.780914 -362.060852 3.289789 33.515282 -112.541481 499.952881
51 -153.359680 -308.780914 -362.060852 3.289794 33.515221 -112.541496 499.952881
[planeLockWeightCenter]
49 -0.000062 0.000238 0.000000 -0.011814 -0.004373 -0.000015 0.000246
50 -0.000062 0.000238 0.000000 -0.011814 -0.004373 -0.000015 0.000246
51 -0.000062 0.000238 0.000000 -0.011814 -0.004373 -0.000015 0.000246
[Rear_Toe1_02]
49 379.707825 0.194073 0.000477 -0.000242 -31.678677 0.006934 379.707855
50 379.707825 0.194073 0.000477 -0.000242 -31.678711 0.006934 379.707855
51 379.707825 0.194073 0.000477 -0.000242 -31.678757 0.006934 379.707855
[Rear_Toe1_03]
49 500.129700 0.165701 0.000119 -0.000103 51.908646 0.007296 500.129761
50 500.129700 0.165701 0.000119 -0.000103 51.908802 0.007296 500.129761
51 500.129700 0.165701 0.000119 -0.000103 51.908928 0.007296 500.129761
[Rear_Toe2_02]
49 340.494507 0.000238 -0.000954 0.001192 -69.856789 0.001192 340.494507
50 340.494507 0.000238 -0.000954 0.001192 -69.856842 0.001192 340.494507
51 340.494507 0.000238 -0.000954 0.001192 -69.856865 0.001192 340.494507
[Rear_Toe2_03]
49 433.103577 0.000000 0.000238 0.006696 69.812576 0.006696 433.103546
50 433.103577 0.000000 0.000238 0.006696 69.812637 0.006696 433.103546
51 433.103577 0.000000 0.000238 0.006696 69.812683 0.006696 433.103546
[Rear_Toe3_02]
49 340.494141 -0.000358 -0.000477 0.008289 -67.276939 -0.009461 340.494171
50 340.494141 -0.000358 -0.000477 0.008289 -67.276970 -0.009461 340.494171
51 340.494141 -0.000358 -0.000477 0.008289 -67.277008 -0.009461 340.494171
[Rear_Toe3_03]
49 433.103577 0.001431 -0.000238 -0.000972 65.958961 -0.004547 433.103546
50 433.103577 0.001431 -0.000238 -0.000972 65.958961 -0.004547 433.103546
51 433.103577 0.001431 -0.000238 -0.000972 65.958961 -0.004547 433.103546
[Back_Bone]
49 1312.175781 -701.934692 0.000954 0.000023 -0.000007 -85.606667 1488.125488
50 1312.175781 -701.934692 0.000954 0.000023 -0.000007 -85.606667 1488.125488
51 1312.175781 -701.934692 0.000954 0.000023 -0.000007 -85.606667 1488.125488
[Head]
49 1406.159424 809.709290 0.001431 -0.001191 -2.028261 17.836395 1622.625488
50 1406.159424 809.709290 0.001431 -0.000843 -1.914404 17.836071 1622.625488
51 1406.159424 809.709290 0.001431 -0.000496 -1.800547 17.835745 1622.625488
[Motor_Bone]
49 1158.364380 -417.834747 0.000477 -7.611032 -1.356281 -104.435768 1231.419434
50 1158.364380 -417.834747 0.000477 -7.789581 -1.686773 -104.567116 1231.419434
51 1158.364380 -417.834747 0.000477 -7.967400 -2.017670 -104.697433 1231.419434
[Ping_Mechanism]
49 1234.163696 -435.691071 -6.377409 0.000103 -0.000053 82.120995 1308.826660
50 1234.260620 -436.544281 -5.768532 0.000103 -0.000053 82.120995 1309.199585
51 1234.357544 -437.397522 -5.159656 0.000103 -0.000053 82.120995 1309.573120
[BN_LookIK]
49 193.241119 1380.371704 -0.002861 0.000000 89.965736 -31.038179 1393.832153
50 193.241119 1380.371704 -0.002861 0.000000 89.965736 -31.038179 1393.832153
51 193.241119 1380.371704 -0.002861 0.000000 89.965736 -31.038179 1393.832153
[bottomMouth]
49 -435.092926 615.759399 -0.000954 -0.000022 0.000016 73.527184 753.966492
50 -435.092926 615.759399 -0.000954 -0.000022 0.000016 73.527184 753.966492
51 -435.092926 615.759399 -0.000954 -0.000022 0.000016 73.527184 753.966492
[L_Mouth01]
49 554.440979 7.658243 838.222046 150.204178 23.759130 109.605339 1005.027161
50 554.440979 7.658243 838.222046 150.204178 23.759130 109.605339 1005.027161
51 554.440979 7.658243 838.222046 150.204178 23.759130 109.605339 1005.027161
[L_mouthFront]
49 551.629089 934.514771 339.150421 0.000081 2.804060 79.119301 1136.941284
50 551.629089 934.514771 339.150421 0.000081 2.804060 79.119301 1136.941284
51 551.629089 934.514771 339.150421 0.000081 2.804060 79.119301 1136.941284
[mouthGun]
49 55.332661 1627.420898 0.000000 0.000023 0.000009 -11.038128 1628.361328
50 55.332661 1627.420898 0.000000 0.000023 0.000009 -11.038128 1628.361328
51 55.332661 1627.420898 0.000000 0.000023 0.000009 -11.038128 1628.361328
[R_Mouth01]
49 554.442383 7.659197 -838.223938 29.795891 -23.759109 109.605331 1005.029541
50 554.442383 7.659197 -838.223938 29.795891 -23.759109 109.605331 1005.029541
51 554.442383 7.659197 -838.223938 29.795891 -23.759109 109.605331 1005.029541
[R_mouthFront]
49 551.629089 934.514282 -339.151367 0.000029 -2.803930 79.119133 1136.941162
50 551.629089 934.514282 -339.151367 0.000029 -2.803930 79.119133 1136.941162
51 551.629089 934.514282 -339.151367 0.000029 -2.803930 79.119133 1136.941162
[TopMouth]
49 461.269867 -56.106091 -0.008583 -0.000059 -0.000268 92.025169 464.669525
50 461.269867 -56.106091 -0.008583 -0.000059 -0.000268 92.025169 464.669525
51 461.269867 -56.106091 -0.008583 -0.000059 -0.000268 92.025169 464.669525
[weapon_bone]
49 -987.239868 1448.372803 0.001431 0.000000 89.965736 -31.038221 1752.833740
50 -987.239868 1448.372803 0.001431 0.000000 89.965736 -31.038221 1752.833740
51 -987.239868 1448.372803 0.001431 0.000000 89.965736 -31.038221 1752.833740
